# xmcd
#
# Track frame offsets:
#	150
#	12698
#	23990
#	35923
#	51240
#	61195
#	73870
#	83873
#	96963
#	105440
#	118428
#	128693
#	140403
#	151710
#	162740
#	173835
#	183935
#	196310
#
# Disc length: 2754 seconds
#
# Revision: 1
# Processed by: cddbd v1.5.2PL0 Copyright (c) Steve Scherf et al.
# Submitted via: audiograbber 1.83.01
#
DISCID=020ac012
DTITLE=Ted Taylor - Ted Taylor's Greatest Hits
DYEAR=1966
DGENRE=Soul
TTITLE0=Stay Away From My Baby
TTITLE1=I Love You, Yes I Do
TTITLE2=Can't Take No More
TTITLE3=I'll Release You
TTITLE4=Don't Lie
TTITLE5=Be Ever Wonderful
TTITLE6=(Love Is Like A) Ramblin' Rose
TTITLE7=Don't Deceive Me (Please Don't Go)
TTITLE8=It Ain't Like That No More
TTITLE9=Need You Home
TTITLE10=Time Has A Way
TTITLE11=You Must Have Been Meant For Me
TTITLE12=Pretending Love
TTITLE13=Thats Life I Guess
TTITLE14=Him Instead Of Me
TTITLE15=I'll Make It Up To You
TTITLE16=So Hard
TTITLE17=Somebody's Always Trying
EXTD=
EXTT0=
EXTT1=
EXTT2=
EXTT3=
EXTT4=
EXTT5=
EXTT6=
EXTT7=
EXTT8=
EXTT9=
EXTT10=
EXTT11=
EXTT12=
EXTT13=
EXTT14=
EXTT15=
EXTT16=
EXTT17=
PLAYORDER=
